<mxfile host="app.diagrams.net" modified="2022-02-21T02:05:45.594Z" agent="5.0 (Windows NT 6.3; Win64; x64) AppleWebKit/537.36 (KHTML, like Gecko) Chrome/98.0.4758.102 Safari/537.36" etag="Laiahk2h6pgjRi5MOR5C" version="16.6.1" type="github">
  <diagram name="Page-1" id="12e1b939-464a-85fe-373e-61e167be1490">
    <mxGraphModel dx="965" dy="-588" grid="1" gridSize="10" guides="1" tooltips="1" connect="1" arrows="1" fold="1" page="1" pageScale="1.5" pageWidth="1169" pageHeight="826" background="none" math="0" shadow="0">
      <root>
        <mxCell id="0" />
        <mxCell id="1" parent="0" />
        <mxCell id="1dnlVXwKeEKdhnSRgyNn-92" value="" style="rounded=0;whiteSpace=wrap;html=1;fontFamily=Times New Roman;fontSize=14;fillColor=#FFFFFF;dashed=1;" vertex="1" parent="1">
          <mxGeometry x="399" y="1728" width="320" height="30" as="geometry" />
        </mxCell>
        <mxCell id="1dnlVXwKeEKdhnSRgyNn-91" value="" style="rounded=0;whiteSpace=wrap;html=1;fontFamily=Times New Roman;fontSize=14;fillColor=#FFFFFF;dashed=1;" vertex="1" parent="1">
          <mxGeometry x="401" y="1679" width="320" height="30" as="geometry" />
        </mxCell>
        <mxCell id="1dnlVXwKeEKdhnSRgyNn-18" value="" style="rounded=0;whiteSpace=wrap;html=1;dashed=1;fillColor=#E6FFCC;strokeColor=#6c8ebf;" vertex="1" parent="1">
          <mxGeometry x="740" y="1820" width="140" height="240" as="geometry" />
        </mxCell>
        <mxCell id="1dnlVXwKeEKdhnSRgyNn-19" value="" style="rounded=0;whiteSpace=wrap;html=1;dashed=1;fillColor=#E6FFCC;strokeColor=#6c8ebf;" vertex="1" parent="1">
          <mxGeometry x="570" y="1820" width="140" height="240" as="geometry" />
        </mxCell>
        <mxCell id="1dnlVXwKeEKdhnSRgyNn-20" value="" style="rounded=0;whiteSpace=wrap;html=1;dashed=1;fillColor=#E6FFCC;strokeColor=#6c8ebf;" vertex="1" parent="1">
          <mxGeometry x="400" y="1820" width="140" height="240" as="geometry" />
        </mxCell>
        <mxCell id="1dnlVXwKeEKdhnSRgyNn-21" value="&lt;font style=&quot;font-size: 14px&quot;&gt;全局EC&amp;nbsp;存储池&lt;/font&gt;" style="rounded=0;whiteSpace=wrap;html=1;fillColor=#66FFFF;strokeColor=#36393d;" vertex="1" parent="1">
          <mxGeometry x="360" y="1850" width="560" height="130" as="geometry" />
        </mxCell>
        <mxCell id="1dnlVXwKeEKdhnSRgyNn-30" value="" style="image;html=1;image=img/lib/clip_art/computers/Server_128x128.png" vertex="1" parent="1">
          <mxGeometry x="414.5" y="1980" width="110" height="80" as="geometry" />
        </mxCell>
        <mxCell id="1dnlVXwKeEKdhnSRgyNn-31" value="" style="image;html=1;image=img/lib/clip_art/computers/Server_128x128.png" vertex="1" parent="1">
          <mxGeometry x="585" y="1980" width="110" height="80" as="geometry" />
        </mxCell>
        <mxCell id="1dnlVXwKeEKdhnSRgyNn-32" value="" style="verticalLabelPosition=bottom;html=1;verticalAlign=top;align=center;strokeColor=none;fillColor=#00BEF2;shape=mxgraph.azure.vhd;pointerEvents=1;" vertex="1" parent="1">
          <mxGeometry x="763.5" y="1857.62" width="40" height="50" as="geometry" />
        </mxCell>
        <mxCell id="1dnlVXwKeEKdhnSRgyNn-33" value="" style="verticalLabelPosition=bottom;html=1;verticalAlign=top;align=center;strokeColor=none;fillColor=#00BEF2;shape=mxgraph.azure.vhd;pointerEvents=1;" vertex="1" parent="1">
          <mxGeometry x="820" y="1857.62" width="40" height="50" as="geometry" />
        </mxCell>
        <mxCell id="1dnlVXwKeEKdhnSRgyNn-34" value="" style="verticalLabelPosition=bottom;html=1;verticalAlign=top;align=center;strokeColor=none;fillColor=#00BEF2;shape=mxgraph.azure.vhd;pointerEvents=1;" vertex="1" parent="1">
          <mxGeometry x="763.5" y="1922.37" width="40" height="50" as="geometry" />
        </mxCell>
        <mxCell id="1dnlVXwKeEKdhnSRgyNn-35" value="" style="verticalLabelPosition=bottom;html=1;verticalAlign=top;align=center;strokeColor=none;fillColor=#00BEF2;shape=mxgraph.azure.vhd;pointerEvents=1;" vertex="1" parent="1">
          <mxGeometry x="820" y="1922.37" width="40" height="50" as="geometry" />
        </mxCell>
        <mxCell id="1dnlVXwKeEKdhnSRgyNn-36" value="" style="image;html=1;image=img/lib/clip_art/computers/Server_128x128.png" vertex="1" parent="1">
          <mxGeometry x="755" y="1980" width="110" height="80" as="geometry" />
        </mxCell>
        <mxCell id="1dnlVXwKeEKdhnSRgyNn-50" value="D1" style="rounded=1;whiteSpace=wrap;html=1;fillColor=#CCFFCC;strokeColor=#82b366;" vertex="1" parent="1">
          <mxGeometry x="405" y="1689" width="40" height="10" as="geometry" />
        </mxCell>
        <mxCell id="1dnlVXwKeEKdhnSRgyNn-51" value="D2" style="rounded=1;whiteSpace=wrap;html=1;fillColor=#CCFFCC;strokeColor=#82b366;" vertex="1" parent="1">
          <mxGeometry x="455" y="1689" width="40" height="10" as="geometry" />
        </mxCell>
        <mxCell id="1dnlVXwKeEKdhnSRgyNn-52" value="P1" style="rounded=1;whiteSpace=wrap;html=1;fillColor=#33FF33;strokeColor=#82b366;" vertex="1" parent="1">
          <mxGeometry x="615" y="1689" width="40" height="10" as="geometry" />
        </mxCell>
        <mxCell id="1dnlVXwKeEKdhnSRgyNn-53" value="D4" style="rounded=1;whiteSpace=wrap;html=1;fillColor=#CCFFCC;strokeColor=#82b366;" vertex="1" parent="1">
          <mxGeometry x="558.5" y="1689" width="40" height="10" as="geometry" />
        </mxCell>
        <mxCell id="1dnlVXwKeEKdhnSRgyNn-54" value="D3" style="rounded=1;whiteSpace=wrap;html=1;fillColor=#CCFFCC;strokeColor=#82b366;" vertex="1" parent="1">
          <mxGeometry x="505" y="1689" width="40" height="10" as="geometry" />
        </mxCell>
        <mxCell id="1dnlVXwKeEKdhnSRgyNn-55" value="" style="verticalLabelPosition=bottom;html=1;verticalAlign=top;align=center;strokeColor=none;fillColor=#00BEF2;shape=mxgraph.azure.vhd;pointerEvents=1;" vertex="1" parent="1">
          <mxGeometry x="420" y="1857.62" width="43.5" height="50" as="geometry" />
        </mxCell>
        <mxCell id="1dnlVXwKeEKdhnSRgyNn-56" value="" style="verticalLabelPosition=bottom;html=1;verticalAlign=top;align=center;strokeColor=none;fillColor=#00BEF2;shape=mxgraph.azure.vhd;pointerEvents=1;" vertex="1" parent="1">
          <mxGeometry x="483.5" y="1857.62" width="40" height="50" as="geometry" />
        </mxCell>
        <mxCell id="1dnlVXwKeEKdhnSRgyNn-57" value="" style="verticalLabelPosition=bottom;html=1;verticalAlign=top;align=center;strokeColor=none;fillColor=#00BEF2;shape=mxgraph.azure.vhd;pointerEvents=1;" vertex="1" parent="1">
          <mxGeometry x="420" y="1922.37" width="40" height="50" as="geometry" />
        </mxCell>
        <mxCell id="1dnlVXwKeEKdhnSRgyNn-58" value="" style="verticalLabelPosition=bottom;html=1;verticalAlign=top;align=center;strokeColor=none;fillColor=#00BEF2;shape=mxgraph.azure.vhd;pointerEvents=1;" vertex="1" parent="1">
          <mxGeometry x="483.5" y="1922.37" width="40" height="50" as="geometry" />
        </mxCell>
        <mxCell id="1dnlVXwKeEKdhnSRgyNn-59" value="" style="verticalLabelPosition=bottom;html=1;verticalAlign=top;align=center;strokeColor=none;fillColor=#00BEF2;shape=mxgraph.azure.vhd;pointerEvents=1;" vertex="1" parent="1">
          <mxGeometry x="593.5" y="1857.62" width="40" height="50" as="geometry" />
        </mxCell>
        <mxCell id="1dnlVXwKeEKdhnSRgyNn-60" value="" style="verticalLabelPosition=bottom;html=1;verticalAlign=top;align=center;strokeColor=none;fillColor=#00BEF2;shape=mxgraph.azure.vhd;pointerEvents=1;" vertex="1" parent="1">
          <mxGeometry x="650" y="1857.62" width="40" height="50" as="geometry" />
        </mxCell>
        <mxCell id="1dnlVXwKeEKdhnSRgyNn-61" value="" style="verticalLabelPosition=bottom;html=1;verticalAlign=top;align=center;strokeColor=none;fillColor=#00BEF2;shape=mxgraph.azure.vhd;pointerEvents=1;" vertex="1" parent="1">
          <mxGeometry x="593.5" y="1922.37" width="40" height="50" as="geometry" />
        </mxCell>
        <mxCell id="1dnlVXwKeEKdhnSRgyNn-62" value="" style="verticalLabelPosition=bottom;html=1;verticalAlign=top;align=center;strokeColor=none;fillColor=#00BEF2;shape=mxgraph.azure.vhd;pointerEvents=1;" vertex="1" parent="1">
          <mxGeometry x="650" y="1922.37" width="40" height="50" as="geometry" />
        </mxCell>
        <mxCell id="1dnlVXwKeEKdhnSRgyNn-63" value="D2" style="rounded=1;whiteSpace=wrap;html=1;fillColor=#CCFFCC;strokeColor=#82b366;" vertex="1" parent="1">
          <mxGeometry x="650" y="1870" width="40" height="10" as="geometry" />
        </mxCell>
        <mxCell id="1dnlVXwKeEKdhnSRgyNn-64" value="D1" style="rounded=1;whiteSpace=wrap;html=1;fillColor=#CCFFCC;strokeColor=#82b366;" vertex="1" parent="1">
          <mxGeometry x="420" y="1870" width="40" height="10" as="geometry" />
        </mxCell>
        <mxCell id="1dnlVXwKeEKdhnSRgyNn-66" value="D3" style="rounded=1;whiteSpace=wrap;html=1;fillColor=#CCFFCC;strokeColor=#82b366;" vertex="1" parent="1">
          <mxGeometry x="593.5" y="1930" width="40" height="10" as="geometry" />
        </mxCell>
        <mxCell id="1dnlVXwKeEKdhnSRgyNn-67" value="D4" style="rounded=1;whiteSpace=wrap;html=1;fillColor=#CCFFCC;strokeColor=#82b366;" vertex="1" parent="1">
          <mxGeometry x="763.5" y="1930" width="40" height="10" as="geometry" />
        </mxCell>
        <mxCell id="1dnlVXwKeEKdhnSRgyNn-68" value="P1" style="rounded=1;whiteSpace=wrap;html=1;fillColor=#33FF33;strokeColor=#82b366;" vertex="1" parent="1">
          <mxGeometry x="820" y="1870" width="40" height="10" as="geometry" />
        </mxCell>
        <mxCell id="1dnlVXwKeEKdhnSRgyNn-69" value="P2" style="rounded=1;whiteSpace=wrap;html=1;fillColor=#33FF33;strokeColor=#82b366;" vertex="1" parent="1">
          <mxGeometry x="420" y="1930" width="40" height="10" as="geometry" />
        </mxCell>
        <mxCell id="1dnlVXwKeEKdhnSRgyNn-70" value="P2" style="rounded=1;whiteSpace=wrap;html=1;fillColor=#FF33FF;strokeColor=#82b366;" vertex="1" parent="1">
          <mxGeometry x="672" y="1738" width="40" height="10" as="geometry" />
        </mxCell>
        <mxCell id="1dnlVXwKeEKdhnSRgyNn-71" value="D1" style="rounded=1;whiteSpace=wrap;html=1;fillColor=#FFCCFF;strokeColor=#82b366;" vertex="1" parent="1">
          <mxGeometry x="402.5" y="1738" width="40" height="10" as="geometry" />
        </mxCell>
        <mxCell id="1dnlVXwKeEKdhnSRgyNn-72" value="D2" style="rounded=1;whiteSpace=wrap;html=1;fillColor=#FFCCFF;strokeColor=#82b366;" vertex="1" parent="1">
          <mxGeometry x="453" y="1738" width="40" height="10" as="geometry" />
        </mxCell>
        <mxCell id="1dnlVXwKeEKdhnSRgyNn-73" value="P1" style="rounded=1;whiteSpace=wrap;html=1;fillColor=#FF33FF;strokeColor=#82b366;" vertex="1" parent="1">
          <mxGeometry x="613" y="1738" width="40" height="10" as="geometry" />
        </mxCell>
        <mxCell id="1dnlVXwKeEKdhnSRgyNn-74" value="D4" style="rounded=1;whiteSpace=wrap;html=1;fillColor=#FFCCFF;strokeColor=#82b366;" vertex="1" parent="1">
          <mxGeometry x="556.5" y="1738" width="40" height="10" as="geometry" />
        </mxCell>
        <mxCell id="1dnlVXwKeEKdhnSRgyNn-75" value="D3" style="rounded=1;whiteSpace=wrap;html=1;fillColor=#FFCCFF;strokeColor=#82b366;" vertex="1" parent="1">
          <mxGeometry x="503" y="1738" width="40" height="10" as="geometry" />
        </mxCell>
        <mxCell id="1dnlVXwKeEKdhnSRgyNn-76" value="D1" style="rounded=1;whiteSpace=wrap;html=1;fillColor=#FFCCFF;strokeColor=#82b366;" vertex="1" parent="1">
          <mxGeometry x="483.5" y="1870" width="40" height="10" as="geometry" />
        </mxCell>
        <mxCell id="1dnlVXwKeEKdhnSRgyNn-77" value="D2" style="rounded=1;whiteSpace=wrap;html=1;fillColor=#FFCCFF;strokeColor=#82b366;" vertex="1" parent="1">
          <mxGeometry x="593.37" y="1950" width="40" height="10" as="geometry" />
        </mxCell>
        <mxCell id="1dnlVXwKeEKdhnSRgyNn-78" value="D3" style="rounded=1;whiteSpace=wrap;html=1;fillColor=#FFCCFF;strokeColor=#82b366;" vertex="1" parent="1">
          <mxGeometry x="421.75" y="1890" width="40" height="10" as="geometry" />
        </mxCell>
        <mxCell id="1dnlVXwKeEKdhnSRgyNn-79" value="D4" style="rounded=1;whiteSpace=wrap;html=1;fillColor=#FFCCFF;strokeColor=#82b366;" vertex="1" parent="1">
          <mxGeometry x="763.5" y="1877.62" width="40" height="10" as="geometry" />
        </mxCell>
        <mxCell id="1dnlVXwKeEKdhnSRgyNn-80" value="P1" style="rounded=1;whiteSpace=wrap;html=1;fillColor=#FF33FF;strokeColor=#82b366;" vertex="1" parent="1">
          <mxGeometry x="650" y="1887.62" width="40" height="10" as="geometry" />
        </mxCell>
        <mxCell id="1dnlVXwKeEKdhnSRgyNn-81" value="P2" style="rounded=1;whiteSpace=wrap;html=1;fillColor=#FF33FF;strokeColor=#82b366;" vertex="1" parent="1">
          <mxGeometry x="763.5" y="1951.37" width="40" height="10" as="geometry" />
        </mxCell>
        <mxCell id="1dnlVXwKeEKdhnSRgyNn-82" value="&lt;font style=&quot;font-size: 14px&quot; face=&quot;Times New Roman&quot;&gt;&lt;b&gt;Node0&lt;/b&gt;&lt;/font&gt;" style="text;html=1;strokeColor=none;fillColor=none;align=center;verticalAlign=middle;whiteSpace=wrap;rounded=0;" vertex="1" parent="1">
          <mxGeometry x="439.5" y="1820" width="60" height="30" as="geometry" />
        </mxCell>
        <mxCell id="1dnlVXwKeEKdhnSRgyNn-85" value="&lt;font style=&quot;font-size: 14px&quot; face=&quot;Times New Roman&quot;&gt;&lt;b&gt;Node1&lt;/b&gt;&lt;/font&gt;" style="text;html=1;strokeColor=none;fillColor=none;align=center;verticalAlign=middle;whiteSpace=wrap;rounded=0;" vertex="1" parent="1">
          <mxGeometry x="610" y="1820" width="60" height="30" as="geometry" />
        </mxCell>
        <mxCell id="1dnlVXwKeEKdhnSRgyNn-86" value="&lt;font style=&quot;font-size: 14px&quot; face=&quot;Times New Roman&quot;&gt;&lt;b&gt;Node2&lt;/b&gt;&lt;/font&gt;" style="text;html=1;strokeColor=none;fillColor=none;align=center;verticalAlign=middle;whiteSpace=wrap;rounded=0;" vertex="1" parent="1">
          <mxGeometry x="780" y="1820" width="60" height="30" as="geometry" />
        </mxCell>
        <mxCell id="1dnlVXwKeEKdhnSRgyNn-87" value="P2" style="rounded=1;whiteSpace=wrap;html=1;fillColor=#33FF33;strokeColor=#82b366;" vertex="1" parent="1">
          <mxGeometry x="674" y="1689" width="40" height="10" as="geometry" />
        </mxCell>
        <mxCell id="1dnlVXwKeEKdhnSRgyNn-93" value="Stripe 0" style="text;html=1;strokeColor=none;fillColor=none;align=center;verticalAlign=middle;whiteSpace=wrap;rounded=0;dashed=1;fontFamily=Times New Roman;fontSize=14;" vertex="1" parent="1">
          <mxGeometry x="740" y="1679" width="60" height="30" as="geometry" />
        </mxCell>
        <mxCell id="1dnlVXwKeEKdhnSRgyNn-94" value="Stripe 1" style="text;html=1;strokeColor=none;fillColor=none;align=center;verticalAlign=middle;whiteSpace=wrap;rounded=0;dashed=1;fontFamily=Times New Roman;fontSize=14;" vertex="1" parent="1">
          <mxGeometry x="740" y="1728" width="60" height="30" as="geometry" />
        </mxCell>
      </root>
    </mxGraphModel>
  </diagram>
</mxfile>
